<svg width="971" height="281" viewBox="0 0 971 281" fill="none" xmlns="http://www.w3.org/2000/svg">
<path fill-rule="evenodd" clip-rule="evenodd" d="M60.3847 58.5527C60.3847 58.5527 48.4634 59.3492 47.7165 59.7401C44.7776 61.5885 42.018 63.7088 39.4739 66.0731C38.0857 67.7523 33.1693 70.87 33.7968 72.8551C34.3788 74.8851 35.3647 76.7762 36.6951 78.4146C38.2366 80.3294 42.0826 78.5885 33.2138 85.5441C24.345 92.4997 23.1939 93.3744 19.294 98.6591C15.3942 103.944 11.4601 107.296 9.63396 111.608C7.98975 115.726 6.60481 119.943 5.48723 124.235L5.13867 133.943L12.5932 138.343L5.51013 173.169L9.57911 190.613C10.2796 193.561 11.1582 196.464 12.2099 199.306C13.1388 201.088 19.4861 199.716 19.4861 199.716L22.6013 202.826L34.0929 225.911L51.4642 248.073L74.6895 267.874L91.602 272.744L111.131 275.859L142.396 264.71L153.348 251.72L157.946 230.147C157.946 230.147 158.917 222.154 157.975 222.648C157.032 223.141 140.99 202.052 140.99 202.052C140.99 202.052 129.416 198.607 128.039 198.92C126.663 199.232 122.378 200.522 122.378 200.522L133.396 173.548C133.396 173.548 134.484 168.079 135.097 169.255C135.71 170.431 143.101 177.835 146.493 177.829C149.885 177.823 162.663 173.72 163.234 172.469C164.566 169.456 165.368 166.236 165.605 162.949C165.395 160.201 167.22 150.763 166.295 151.247C165.37 151.731 156.367 142.971 155.991 143.032C154.836 142.954 153.688 142.798 152.554 142.563L142.694 142.144L135.559 147.172C135.559 147.172 131.579 134.285 131.584 133.557C131.589 132.828 131.444 129.684 131.444 129.684L102.374 106.705L71.962 62.6541L60.3847 58.5527Z" fill="url(#paint0_linear)"/>
<path opacity="0.2" d="M13.6484 108.327C14.1036 109.2 14.5774 110.109 14.9344 111.01C22.6003 126.513 33.957 139.887 48.0021 149.951C50.6395 151.849 53.9213 152.62 57.1255 152.093C60.3298 151.566 63.194 149.786 65.0882 147.143C66.9823 144.501 67.7512 141.212 67.2256 138.001C66.7001 134.791 64.9232 131.921 62.2858 130.023C51.4855 122.302 42.7456 112.039 36.8358 100.136C34.244 94.9104 32.2299 89.4164 30.8292 83.752C30.6168 84.246 30.3766 84.7276 30.11 85.1945C29.7675 86.1105 29.3062 86.9773 28.7378 87.7726L28.6063 87.9547C28.2569 88.6443 27.8385 89.2964 27.3575 89.9012C26.9625 90.5167 26.5 91.0859 25.9787 91.5982C25.6244 92.709 25.0912 93.7542 24.4002 94.6926C24.2356 95.0282 24.0355 95.3824 23.8261 95.7189C23.3394 96.7494 22.6962 97.6981 21.9195 98.5313C21.3933 99.75 20.6427 100.858 19.707 101.799C19.4358 102.35 19.1082 102.871 18.7294 103.354C17.72 105.456 16.0604 107.176 13.9972 108.258L13.6484 108.327Z" fill="#836BED"/>
<path opacity="0.2" d="M6.12109 162.619C13.3863 174.099 22.7884 184.07 33.8144 191.989C36.4541 193.886 39.7377 194.654 42.9428 194.125C46.1478 193.596 49.0119 191.813 50.9048 189.168C52.7977 186.523 53.5644 183.233 53.0363 180.021C52.5082 176.81 50.7285 173.94 48.0888 172.043C37.8189 164.696 29.4077 155.043 23.5281 143.856C17.6485 132.668 14.4638 120.257 14.2288 107.615C14.0061 108.32 13.7177 109.003 13.3675 109.654L12.9765 110.38C12.6092 111.299 12.1938 112.198 11.732 113.073L11.5605 113.525C11.3457 114.395 11.0229 115.235 10.5996 116.024L11.0601 121.249C11.6902 122.769 11.9737 124.411 11.89 126.054C11.9041 126.165 11.9091 126.276 11.9049 126.387L12.0888 129.171L12.4532 130.999C12.6835 132.103 12.7399 133.237 12.6204 134.359L12.3971 136.449L12.6506 143.665C12.7896 144.712 12.7629 145.775 12.5717 146.814C12.4562 149.49 11.3644 152.031 9.50338 153.954L9.4301 154.378C9.34624 154.924 9.2269 155.463 9.07283 155.994C8.87066 158.084 8.07781 160.072 6.78728 161.726L6.20919 162.528" fill="#836BED"/>
<path fill-rule="evenodd" clip-rule="evenodd" d="M102.149 128.414L102.326 142.996C101.854 143.171 101.393 143.374 100.946 143.605L100.448 143.866C98.587 144.844 97.0475 146.34 96.0143 148.174C94.9811 150.007 94.4981 152.101 94.6235 154.203C94.7488 156.305 95.4771 158.326 96.7209 160.023C97.9646 161.72 99.671 163.022 101.635 163.771C101.948 163.932 102.272 164.074 102.603 164.194L103.472 233.552C96.9226 234.969 90.1033 234.442 83.8481 232.036C77.5929 229.63 72.173 225.45 68.2514 220.007C60.2027 208.91 56.9546 193.735 66.4522 182.255C87.1631 156.853 86.6064 137.071 69.9587 87.8574C83.4031 107.697 100.095 125.43 102.149 128.414Z" fill="#FC55AA"/>
<path fill-rule="evenodd" clip-rule="evenodd" d="M111.302 150.84C111.023 150.519 110.727 150.212 110.416 149.921L109.347 148.87C108.596 148.154 107.752 147.543 106.838 147.053L106.44 146.853C104.976 146.04 103.343 145.579 101.671 145.506C99.9987 145.433 98.3324 145.749 96.8031 146.431C97.2231 132.047 93.7196 117.821 86.6698 105.284C109.016 121.576 120.284 132.001 120.472 136.56L120.146 157.643C120.063 157.641 119.983 157.611 119.92 157.557C119.252 156.924 118.51 156.376 117.71 155.924L117.636 155.781C117.159 155.218 116.636 154.695 116.073 154.217C115.771 153.854 115.424 153.536 115.095 153.21C114.012 152.167 112.727 151.358 111.32 150.831L111.302 150.84ZM119.666 192.891L99.7236 222.676C95.8854 222.819 92.0836 221.887 88.7446 219.984C85.4057 218.082 82.6619 215.286 80.8211 211.908C78.9803 208.53 78.1153 204.705 78.3233 200.863C78.5312 197.02 79.8039 193.311 81.9984 190.153C87.5227 182.474 91.6201 173.86 94.0938 164.724C94.3034 164.909 94.5038 165.076 94.722 165.234C94.9402 165.392 94.8985 165.573 95.1159 165.686L96.1048 166.801L96.2349 167.051C99.5607 169.29 102.721 171.767 105.69 174.463C106.055 174.771 106.419 175.079 106.81 175.351C107.222 175.661 107.656 175.942 108.108 176.191C108.674 176.562 109.267 176.889 109.884 177.167C110.803 177.778 111.81 178.245 112.87 178.552C114.112 178.953 115.416 179.131 116.72 179.078L117.241 179.077C118.108 179.052 118.97 178.928 119.81 178.708L119.666 192.891Z" fill="url(#paint1_linear)"/>
<path d="M133.298 173.19C132.682 173.469 132.043 173.696 131.39 173.872L130.536 174.318C129.676 174.764 128.762 175.097 127.817 175.311C127.01 175.609 126.17 175.806 125.315 175.895L124.443 176.351C122.769 177.227 120.898 177.653 119.011 177.587C117.123 177.521 115.286 176.966 113.677 175.976C111.623 182.003 108.73 187.709 105.084 192.926C104.201 194.019 103.552 195.282 103.178 196.637C102.804 197.993 102.713 199.411 102.91 200.803C103.107 202.195 103.589 203.532 104.325 204.729C105.06 205.926 106.034 206.959 107.186 207.762C108.338 208.566 109.643 209.123 111.019 209.398C112.395 209.674 113.813 209.663 115.184 209.365C116.556 209.067 117.851 208.489 118.99 207.667C120.128 206.845 121.086 205.797 121.802 204.588C128.605 194.808 133.375 183.758 135.828 172.093L135.614 172.205C134.85 172.596 134.046 172.903 133.216 173.12L133.298 173.19ZM134.699 130.678C133.995 128.066 132.284 125.842 129.943 124.494C127.601 123.146 124.822 122.785 122.215 123.491C119.608 124.197 117.388 125.911 116.043 128.257C114.698 130.603 114.337 133.388 115.042 136C116.507 141.491 117.28 147.145 117.341 152.828C118.446 152.646 119.572 152.638 120.679 152.805L121.046 152.772C121.984 152.504 122.953 152.362 123.928 152.352L124.574 152.331C125.024 152.317 125.475 152.339 125.921 152.397C126.257 152.266 126.599 152.155 126.948 152.064L127.552 151.748C129.124 150.927 130.871 150.5 132.644 150.505C134.416 150.509 136.162 150.945 137.729 151.774C137.604 144.666 136.632 137.598 134.835 130.721L134.699 130.678Z" fill="#C952AD"/>
<path d="M105.724 140.833C104.662 139.899 103.281 139.414 101.871 139.479C100.46 139.545 99.1298 140.156 98.1593 141.184C97.1887 142.211 96.6535 143.576 96.6662 144.991C96.6789 146.406 97.2386 147.761 98.2274 148.771L118.152 167.668C119.923 169.34 122.228 170.328 124.658 170.456C127.087 170.584 129.483 169.844 131.419 168.368L131.579 168.284L142.664 159.76L146.77 156.522C148.141 155.451 149.867 154.941 151.599 155.095C153.331 155.25 154.94 156.057 156.1 157.354C157.267 158.655 157.898 160.351 157.863 162.1C157.829 163.848 157.134 165.518 155.917 166.772C154.995 167.826 154.512 169.195 154.568 170.595C154.623 171.996 155.214 173.321 156.217 174.298C157.22 175.275 158.559 175.829 159.958 175.845C161.357 175.861 162.708 175.338 163.733 174.384C166.841 171.145 168.614 166.849 168.697 162.356C168.779 157.864 167.166 153.505 164.18 150.153C161.194 146.8 157.055 144.701 152.59 144.275C148.126 143.85 143.666 145.128 140.102 147.856L139.651 148.25L136.004 151.067L125.247 159.351L105.724 140.833Z" fill="#C952AD"/>
<path d="M136.51 175.569C139.693 178.279 143.583 180.018 147.722 180.583C151.86 181.147 156.073 180.512 159.862 178.753C163.652 176.995 166.859 174.185 169.106 170.658C171.352 167.13 172.544 163.032 172.54 158.847C172.535 154.663 171.335 150.567 169.081 147.044C166.828 143.521 163.614 140.718 159.821 138.968C156.028 137.217 151.814 136.591 147.677 137.164C143.54 137.736 139.653 139.484 136.476 142.2L125.17 150.908L108.212 134.835C107.758 134.404 107.224 134.066 106.641 133.842C106.057 133.617 105.435 133.511 104.809 133.527C104.184 133.544 103.569 133.683 102.997 133.938C102.426 134.193 101.911 134.559 101.48 135.013C101.05 135.468 100.713 136.003 100.489 136.588C100.265 137.173 100.159 137.796 100.175 138.423C100.192 139.049 100.331 139.666 100.585 140.238C100.84 140.811 101.204 141.327 101.658 141.758L121.547 160.63C122.365 161.416 123.438 161.882 124.571 161.943C125.703 162.004 126.82 161.655 127.718 160.961L142.255 149.768L142.504 149.638C144.278 148.084 146.459 147.072 148.79 146.723C151.12 146.374 153.501 146.702 155.651 147.668C157.801 148.634 159.63 150.198 160.92 152.173C162.21 154.149 162.907 156.454 162.929 158.815C162.953 160.721 162.535 162.607 161.708 164.324C160.881 166.041 159.668 167.542 158.164 168.71C156.66 169.877 154.906 170.679 153.04 171.053C151.174 171.426 149.248 171.36 147.411 170.861C146.332 170.575 145.297 170.139 144.337 169.567L149.904 165.179C150.901 164.402 151.548 163.26 151.704 162.004C151.861 160.748 151.513 159.482 150.737 158.483C149.961 157.485 148.821 156.836 147.568 156.679C146.315 156.523 145.051 156.872 144.054 157.649C140.841 160.17 138.947 161.66 137.257 163.021C127.497 170.784 122.319 174.877 118.785 174.958C115.251 175.039 110.692 170.507 101.106 160.759L100.585 160.238L100.492 160.06L82.3764 140.941C81.9578 140.441 81.4415 140.032 80.8592 139.74C80.277 139.447 79.6412 139.277 78.9909 139.24C78.3406 139.202 77.6895 139.299 77.0778 139.523C76.4661 139.747 75.9066 140.095 75.4338 140.544C74.961 140.993 74.5849 141.534 74.3286 142.134C74.0723 142.734 73.9412 143.38 73.9434 144.033C73.9456 144.685 74.081 145.331 74.3413 145.929C74.6017 146.527 74.9814 147.066 75.4572 147.512L93.5732 166.63L93.7651 166.824L94.2858 167.346C105.882 179.126 111.365 184.693 119.122 184.376C124.332 184.166 129.152 181.167 136.483 175.516" fill="white"/>
<path d="M98.5776 222.301C98.2718 224.63 98.901 226.986 100.327 228.85C101.753 230.715 103.86 231.936 106.184 232.246C106.851 232.338 107.526 232.35 108.195 232.282C108.115 234.885 108.858 237.446 110.316 239.601C111.775 241.756 113.876 243.395 116.318 244.283C118.761 245.171 121.422 245.264 123.92 244.548C126.419 243.833 128.628 242.344 130.233 240.296C131.838 238.248 132.756 235.745 132.858 233.143C132.959 230.541 132.238 227.973 130.797 225.806C129.356 223.639 127.269 221.983 124.833 221.075C122.398 220.166 119.738 220.051 117.234 220.746C117.685 219.848 118.242 219.008 118.895 218.244C120.43 216.458 122.454 215.163 124.716 214.517C127.098 213.84 129.612 213.78 132.023 214.343C134.435 214.905 136.664 216.072 138.503 217.734C138.568 217.858 138.623 217.965 138.821 217.998C141.95 220.817 144.072 224.585 144.861 228.726C145.651 232.868 145.065 237.154 143.194 240.93L143.056 241.23C140.62 245.894 137.244 250.002 133.143 253.293C129.041 256.584 124.303 258.986 119.227 260.348C118.085 260.628 117.009 261.135 116.065 261.838C115.121 262.541 114.326 263.426 113.728 264.442C113.13 265.457 112.74 266.581 112.582 267.75C112.424 268.918 112.5 270.106 112.807 271.244C113.114 272.382 113.644 273.448 114.368 274.377C115.091 275.307 115.993 276.083 117.02 276.658C118.046 277.234 119.178 277.598 120.347 277.729C121.516 277.86 122.7 277.756 123.828 277.422C131.27 275.423 138.217 271.897 144.229 267.068C150.241 262.238 155.186 256.211 158.752 249.367L159.038 248.831C162.647 241.567 163.768 233.313 162.228 225.347C160.689 217.38 156.575 210.142 150.522 204.751L150.476 204.662C146.413 200.934 141.462 198.316 136.098 197.06C130.733 195.804 125.137 195.953 119.846 197.492C114.288 199.108 109.319 202.307 105.541 206.7C101.764 211.093 99.341 216.491 98.5675 222.238" fill="#FB818C"/>
<path d="M118.369 220.357C117.489 221.227 116.981 222.406 116.954 223.645C116.927 224.883 117.382 226.084 118.223 226.992C119.065 227.9 120.226 228.443 121.46 228.508C122.695 228.572 123.906 228.152 124.837 227.337C125.448 226.755 126.241 226.404 127.081 226.344C127.871 226.292 128.652 226.527 129.283 227.006C130.004 227.516 130.527 228.259 130.765 229.111C131 230.026 130.932 230.993 130.571 231.866L130.451 232.155C129.589 234.405 128.011 236.307 125.961 237.568C124.018 238.929 121.677 239.603 119.309 239.484L119.021 239.453C116.849 239.168 114.804 238.262 113.133 236.842C111.05 235.103 109.429 232.873 108.414 230.353C107.415 227.829 107.124 225.079 107.574 222.401C108.031 219.403 109.216 216.562 111.026 214.13C113.125 211.318 115.842 209.027 118.966 207.434C121.991 205.888 125.337 205.077 128.733 205.066C133.295 205.124 137.749 206.472 141.58 208.956C145.566 211.492 148.79 215.065 150.908 219.293L150.973 219.418C152.912 223.049 154.015 227.068 154.201 231.182C154.388 235.296 153.652 239.399 152.049 243.191C150.222 247.638 147.596 251.711 144.302 255.207C140.684 259.106 136.445 262.375 131.757 264.881C124.72 268.582 116.952 270.674 109.011 271.006C101.071 271.339 93.1557 269.903 85.8352 266.803C70.7004 260.697 57.4394 250.701 47.389 237.822C37.4906 224.935 29.7988 210.489 24.6278 195.075C24.2056 193.892 23.3345 192.924 22.204 192.382C21.0734 191.84 19.7749 191.767 18.5909 192.179C18.2135 192.32 17.8551 192.507 17.5239 192.737C16.7236 193.156 16.0349 193.789 15.2912 194.359C10.7907 174.937 11.657 154.653 17.7969 135.687C18.1736 134.482 18.0574 133.177 17.4739 132.057C16.8904 130.938 15.8873 130.097 14.685 129.718C14.3853 129.624 14.0778 129.557 13.7661 129.518C12.705 129.393 11.6176 129.305 10.5131 129.271C12.2772 120.814 15.661 112.781 20.4772 105.615C26.2461 97.0235 33.9945 89.9493 43.0675 84.9908C43.6196 84.6989 44.1084 84.3001 44.5055 83.8174C44.9026 83.3347 45.2 82.7777 45.3806 82.1789C45.5612 81.5801 45.6213 80.9514 45.5574 80.3291C45.4935 79.7069 45.307 79.1034 45.0085 78.554C44.8401 78.221 44.6263 77.9131 44.3731 77.6392C42.9021 75.9748 41.2864 74.4448 39.5449 73.0671L39.2988 72.8557C42.8304 69.6907 46.7217 66.9534 50.8924 64.7007C56.6781 61.5688 62.9465 59.4301 69.4373 58.3734C70.0648 58.2814 70.6678 58.0651 71.2109 57.7371C71.7541 57.4091 72.2266 56.976 72.6009 56.463C72.9752 55.95 73.2437 55.3674 73.3909 54.7493C73.538 54.1312 73.5608 53.4899 73.4579 52.8629C73.3551 52.2358 73.1286 51.6356 72.7916 51.0972C72.4547 50.5589 72.0142 50.0932 71.4957 49.7273C70.9772 49.3614 70.3911 49.1026 69.7717 48.9662C69.1523 48.8297 68.512 48.8182 67.8882 48.9324C60.3668 50.1756 53.1047 52.6659 46.4003 56.3011C39.6224 59.9727 33.4819 64.7187 28.2166 70.3551C27.9445 70.6558 27.7066 70.9857 27.5071 71.3389C27.2077 71.8885 27.0194 72.4919 26.9529 73.1144C26.8864 73.737 26.943 74.3666 27.1194 74.9673C27.2959 75.5679 27.5888 76.1278 27.9814 76.615C28.374 77.1021 28.8586 77.5069 29.4075 77.8063C30.6096 78.4714 31.7599 79.2265 32.8486 80.0651C24.8059 85.4221 17.8908 92.309 12.4955 100.335C5.83167 110.257 1.57647 121.603 0.0699518 133.467C-0.00691817 133.885 -0.0205291 134.313 0.0295899 134.735C0.0900335 135.359 0.272978 135.964 0.567988 136.516C0.862997 137.068 1.26421 137.556 1.74842 137.952C2.23262 138.348 2.79031 138.644 3.38925 138.823C3.98819 139.002 4.61651 139.06 5.23808 138.995L6.83354 138.885C1.10133 160.393 1.48125 183.078 7.93047 204.381C8.1478 205.202 8.57921 205.95 9.18036 206.548C9.78152 207.147 10.5308 207.574 11.3512 207.787C12.1717 207.999 13.0338 207.989 13.849 207.757C14.6643 207.526 15.4033 207.081 15.9902 206.468C16.607 205.828 17.2509 205.196 17.8864 204.591C23.1987 218.716 30.5997 231.961 39.8415 243.882C50.9191 258.051 65.533 269.038 82.2063 275.734C90.8136 279.366 100.118 281.038 109.449 280.629C118.779 280.221 127.903 277.742 136.161 273.372C141.705 270.402 146.729 266.547 151.035 261.958C155.126 257.602 158.382 252.531 160.642 246.995C162.784 241.919 163.768 236.427 163.521 230.921C163.275 225.416 161.804 220.034 159.217 215.171C156.329 209.428 151.946 204.575 146.53 201.126C141.278 197.739 135.197 195.868 128.953 195.72C129.692 194.358 130.421 192.978 131.096 191.581C133.3 187.033 135.096 182.298 136.463 177.431C136.811 176.215 136.662 174.91 136.049 173.804C135.436 172.697 134.41 171.88 133.196 171.532C131.982 171.184 130.679 171.334 129.575 171.948C128.471 172.562 127.656 173.59 127.308 174.807C124.915 183.205 121.11 191.134 116.057 198.251C115.559 198.512 115.044 198.781 114.546 199.042C110.147 201.289 106.314 204.505 103.333 208.449C100.583 212.154 98.7805 216.477 98.0821 221.041C97.3193 225.458 97.791 229.999 99.4451 234.163C101.095 238.117 103.69 241.604 107.002 244.316C110.117 246.904 113.914 248.533 117.934 249.004L118.041 248.948C122.608 249.321 127.166 248.127 130.966 245.562C134.814 243.136 137.75 239.502 139.317 235.226C140.375 232.493 140.554 229.497 139.83 226.656C139.07 223.715 137.334 221.121 134.907 219.299C132.461 217.486 129.456 216.594 126.42 216.777C123.383 216.961 120.507 218.21 118.296 220.304L118.369 220.357ZM133.248 120.506C133.021 119.91 132.677 119.366 132.236 118.905C131.796 118.445 131.267 118.078 130.682 117.826C130.097 117.574 129.468 117.442 128.831 117.439C128.195 117.435 127.564 117.56 126.976 117.805C126.388 118.05 125.856 118.411 125.41 118.867C124.964 119.322 124.614 119.863 124.381 120.456C124.147 121.05 124.035 121.685 124.051 122.322C124.067 122.96 124.211 123.588 124.473 124.169C127.634 131.844 129.529 139.983 130.087 148.267C130.132 148.891 130.299 149.501 130.578 150.061C130.858 150.62 131.245 151.12 131.717 151.53C132.19 151.939 132.738 152.252 133.331 152.45C133.923 152.647 134.549 152.726 135.173 152.681C135.796 152.637 136.404 152.469 136.963 152.189C137.522 151.909 138.02 151.521 138.429 151.048C138.838 150.575 139.15 150.025 139.347 149.431C139.544 148.837 139.623 148.21 139.578 147.586C139.265 142.939 138.571 138.326 137.503 133.793C136.465 129.277 135.066 124.851 133.321 120.559L133.248 120.506Z" fill="white"/>
<path fill-rule="evenodd" clip-rule="evenodd" d="M186.939 106.397C154.229 127.193 128.834 133.363 110.754 124.908C92.9183 118.05 75.4793 94.4262 58.4374 54.0375C49.3692 45.6743 64.7804 31.8165 104.671 12.4639C116.668 7.06018 129.842 4.80813 142.948 5.92025C156.055 7.03238 168.662 11.472 179.582 18.8203C215.838 39.157 224.471 55.7165 205.481 68.499C204.478 88.1973 198.25 100.855 186.797 106.472" fill="url(#paint2_linear)"/>
<path d="M209.945 73.194C212.098 71.9265 214.023 70.3056 215.64 68.399C218.213 65.3201 219.734 61.4953 219.978 57.4865C220.175 53.039 219.107 48.6268 216.899 44.7637C213.944 39.602 210.035 35.0513 205.381 31.3546C205.287 31.2713 205.187 31.1949 205.081 31.1261C186.807 15.742 170.233 5.65995 153.581 1.81069C136.532 -2.1484 119.66 0.30962 101.11 9.9281L66.8317 27.2806C63.9393 28.71 61.272 30.557 58.9149 32.7626C56.4844 35.0934 54.6487 37.9757 53.5627 41.1663C52.4722 44.3449 52.1389 47.735 52.5893 51.0658C53.0829 54.3397 54.1155 57.5089 55.645 60.444L75.5338 98.594C83.0798 113.29 96.0349 124.469 111.659 129.765C119.34 132.368 127.458 133.428 135.548 132.883C143.638 132.338 151.541 130.199 158.806 126.589L158.948 126.515L188.889 111.002C196.504 107.242 202.686 101.092 206.491 93.4873C209.586 87.2136 210.769 80.1652 209.892 73.2219L209.945 73.194ZM114.473 93.091C113.907 92.7634 113.282 92.5507 112.634 92.4651C111.986 92.3795 111.327 92.4226 110.695 92.5921C110.064 92.7615 109.472 93.054 108.953 93.4527C108.434 93.8515 107.999 94.3487 107.672 94.916C107.345 95.4833 107.133 96.1095 107.047 96.759C106.962 97.4086 107.005 98.0686 107.174 98.7014C107.343 99.3342 107.635 99.9275 108.033 100.447C108.431 100.967 108.927 101.403 109.493 101.731C116.346 105.681 124.112 107.763 132.017 107.769C140.046 107.766 147.949 105.772 155.022 101.965L200.209 78.3127C200.122 82.0351 199.225 85.6936 197.581 89.0329C194.748 94.6809 190.144 99.2419 184.476 102.016L154.482 117.557C148.374 120.582 141.729 122.368 134.93 122.813C128.131 123.258 121.312 122.353 114.863 120.15C101.688 115.669 90.765 106.236 84.3968 93.8416L64.6194 55.9054C63.6034 53.9625 62.9087 51.8673 62.5622 49.7015C62.3215 47.8977 62.5041 46.0625 63.0955 44.3418C63.6709 42.6458 64.6549 41.118 65.9602 39.8938C67.6072 38.3706 69.4644 37.093 71.4748 36.1001L105.745 18.7747C122.016 10.2578 136.713 8.0992 151.42 11.5155C166.126 14.9317 181.601 24.296 198.728 38.7384C198.784 38.8453 198.839 38.9522 199.029 39.0118C202.696 41.8891 205.788 45.4339 208.143 49.4603C209.451 51.6969 210.118 54.2523 210.069 56.8444C209.941 58.7326 209.212 60.5298 207.988 61.9709C207.064 63.0697 205.949 63.9914 204.697 64.691L150.405 93.1087C144.757 96.1376 138.453 97.7317 132.046 97.7512C125.899 97.7377 119.862 96.1221 114.527 93.0631L114.473 93.091Z" fill="white"/>
<path fill-rule="evenodd" clip-rule="evenodd" d="M138.482 27.4277C134.075 29.7344 130.45 33.2988 128.064 37.6701C125.679 42.0414 124.641 47.0233 125.081 51.9858C125.522 56.9483 127.421 61.6684 130.538 65.5494C133.656 69.4304 137.852 72.2979 142.596 73.7893C147.34 75.2806 152.419 75.3289 157.191 73.9279C161.962 72.527 166.212 69.7398 169.403 65.9188C172.593 62.0978 174.581 57.4145 175.116 52.4613C175.65 47.5081 174.706 42.5075 172.404 38.0916C169.317 32.1702 164.009 27.7199 157.647 25.7201C151.286 23.7202 144.392 24.3345 138.482 27.4277Z" fill="white"/>
<path d="M155.247 50.2925C155.835 51.2658 156.785 51.965 157.888 52.2363C158.991 52.5076 160.157 52.3287 161.128 51.7391C162.099 51.1494 162.797 50.1973 163.068 49.0922C163.338 47.987 163.16 46.8194 162.572 45.8462C160.79 42.9922 157.999 40.9167 154.757 40.0344C151.515 39.152 148.06 39.5276 145.083 41.0863C142.105 42.6449 139.823 45.2717 138.694 48.4422C137.565 51.6126 137.671 55.0932 138.991 58.1887C139.452 59.2287 140.307 60.0424 141.367 60.4511C142.427 60.8597 143.605 60.8297 144.643 60.3677C145.681 59.9057 146.493 59.0495 146.901 57.9874C147.309 56.9254 147.279 55.7445 146.818 54.7046C146.234 53.5845 146.118 52.278 146.495 51.0723C146.873 49.8666 147.713 48.8606 148.831 48.2755C149.948 47.6904 151.252 47.5742 152.456 47.9525C153.659 48.3308 154.663 49.1725 155.247 50.2925Z" fill="#C952AD"/>
<path d="M130.184 43.4284C131.601 38.7965 134.577 34.8005 138.605 32.1219C142.634 29.4434 147.465 28.2482 152.275 28.7402C157.084 29.2322 161.575 31.3809 164.98 34.8199C168.385 38.2589 170.494 42.7751 170.947 47.5982C171.401 52.4213 170.17 57.2525 167.465 61.2679C164.76 65.2832 160.749 68.234 156.115 69.6167C151.482 70.9995 146.513 70.7288 142.056 68.8506C137.6 66.9724 133.931 63.6032 131.677 59.3176C130.398 56.8975 129.608 54.2484 129.351 51.522C129.095 48.7955 129.378 46.0451 130.184 43.4284ZM136.455 23.5435C130.423 26.6993 125.67 31.8528 123.006 38.1261C120.341 44.3994 119.929 51.4045 121.841 57.9478C123.752 64.4911 127.869 70.1679 133.489 74.0111C139.109 77.8544 145.885 79.6263 152.663 79.025C159.441 78.4237 165.801 75.4863 170.66 70.7134C175.519 65.9405 178.576 59.6272 179.31 52.8492C180.044 46.0711 178.411 39.2476 174.688 33.541C170.964 27.8345 165.381 23.5979 158.89 21.5531C155.205 20.4043 151.33 19.9951 147.486 20.3489C143.643 20.7027 139.907 21.8125 136.492 23.6148L136.455 23.5435Z" fill="white" fill-opacity="0.21"/>
<path d="M379.47 179L340.158 127.88L377.454 82.952H346.926L317.406 122.408V82.952H292.638V179H317.406V150.92L323.886 142.856L349.086 179H379.47ZM443.489 179V135.512C443.489 113.912 427.793 107.72 411.089 107.72C400.433 107.72 388.481 110.888 379.553 118.52L387.473 132.488C393.089 127.736 400.289 125.144 407.201 125.144C416.129 125.144 421.313 129.176 421.313 135.224V143.576C417.137 138.392 408.929 135.512 399.713 135.512C389.057 135.512 375.809 140.984 375.809 157.832C375.809 173.528 389.057 180.728 399.713 180.728C408.641 180.728 416.993 177.272 421.313 172.088V179H443.489ZM408.929 166.184C403.025 166.184 397.841 163.592 397.841 158.12C397.841 152.648 403.025 150.056 408.929 150.056C413.825 150.056 419.009 151.784 421.313 154.952V161.144C419.009 164.456 413.825 166.184 408.929 166.184ZM564.994 179V128.6C564.994 114.344 556.93 107.72 544.114 107.72C533.17 107.72 524.098 114.056 520.066 120.104C517.186 111.896 510.274 107.72 500.338 107.72C489.394 107.72 480.466 113.912 477.442 117.944V109.448H455.266V179H477.442V134.072C479.746 131.192 483.922 127.304 489.826 127.304C496.594 127.304 499.042 131.336 499.042 136.664V179H521.218V134.072C523.378 131.192 527.698 127.304 533.746 127.304C540.37 127.304 542.962 131.336 542.962 136.664V179H564.994ZM640.162 179V135.512C640.162 113.912 624.466 107.72 607.762 107.72C597.106 107.72 585.154 110.888 576.226 118.52L584.146 132.488C589.762 127.736 596.962 125.144 603.874 125.144C612.802 125.144 617.986 129.176 617.986 135.224V143.576C613.81 138.392 605.602 135.512 596.386 135.512C585.73 135.512 572.482 140.984 572.482 157.832C572.482 173.528 585.73 180.728 596.386 180.728C605.314 180.728 613.666 177.272 617.986 172.088V179H640.162ZM605.602 166.184C599.698 166.184 594.514 163.592 594.514 158.12C594.514 152.648 599.698 150.056 605.602 150.056C610.498 150.056 615.682 151.784 617.986 154.952V161.144C615.682 164.456 610.498 166.184 605.602 166.184ZM674.114 179V82.952H651.938V179H674.114ZM719.276 180.728C729.932 180.728 741.452 177.704 748.364 171.512L739.004 157.688C735.116 161.432 726.62 163.592 721.724 163.592C711.644 163.592 705.596 157.688 704.3 151.208H753.836V146.456C753.836 122.84 738.86 107.72 718.268 107.72C696.524 107.72 681.26 123.992 681.26 144.152C681.26 166.76 697.82 180.728 719.276 180.728ZM732.668 136.808H704.012C704.876 131.768 708.62 124.856 718.268 124.856C728.492 124.856 732.092 131.912 732.668 136.808ZM793.703 180.728C817.607 180.728 831.719 163.736 831.719 144.152C831.719 124.568 817.607 107.72 793.703 107.72C770.087 107.72 755.831 124.568 755.831 144.152C755.831 163.736 770.087 180.728 793.703 180.728ZM793.703 161.144C784.055 161.144 778.727 153.512 778.727 144.152C778.727 134.936 784.055 127.304 793.703 127.304C803.495 127.304 808.967 134.936 808.967 144.152C808.967 153.512 803.495 161.144 793.703 161.144ZM908.352 179V129.752C908.352 116.936 901.152 107.72 885.312 107.72C873.648 107.72 865.44 113.048 861.264 117.944V109.448H839.088V179H861.264V134.072C863.856 130.904 868.176 127.304 874.8 127.304C881.712 127.304 886.176 130.328 886.176 138.824V179H908.352Z" fill="white"/>
<path d="M539.718 238H543.038V214.28H551.518V211.32H531.278V214.28H539.718V238ZM552.412 238H555.412V224.32C556.292 222.76 558.812 221.24 560.652 221.24C561.132 221.24 561.492 221.28 561.852 221.36V218.28C559.212 218.28 556.972 219.76 555.412 221.8V218.68H552.412V238ZM577.695 238H580.695V224.72C580.695 220.04 577.295 218.2 573.215 218.2C570.055 218.2 567.575 219.24 565.495 221.4L566.895 223.48C568.615 221.64 570.495 220.8 572.815 220.8C575.615 220.8 577.695 222.28 577.695 224.88V228.36C576.135 226.56 573.935 225.72 571.295 225.72C568.015 225.72 564.535 227.76 564.535 232.08C564.535 236.28 568.015 238.48 571.295 238.48C573.895 238.48 576.095 237.56 577.695 235.8V238ZM577.695 233.92C576.535 235.52 574.495 236.32 572.375 236.32C569.575 236.32 567.615 234.56 567.615 232.12C567.615 229.64 569.575 227.88 572.375 227.88C574.495 227.88 576.535 228.68 577.695 230.28V233.92ZM599.869 238H603.709L595.109 227.44L603.669 218.68H599.869L589.709 228.96V211.32H586.709V238H589.709V232.48L592.909 229.32L599.869 238ZM612.136 238.48C613.896 238.48 614.976 237.96 615.736 237.24L614.856 235C614.456 235.44 613.656 235.8 612.816 235.8C611.496 235.8 610.856 234.76 610.856 233.32V221.32H614.776V218.68H610.856V213.4H607.856V218.68H604.656V221.32H607.856V233.96C607.856 236.84 609.296 238.48 612.136 238.48ZM627.454 238.48C633.334 238.48 637.014 233.92 637.014 228.32C637.014 222.72 633.334 218.2 627.454 218.2C621.574 218.2 617.894 222.72 617.894 228.32C617.894 233.92 621.574 238.48 627.454 238.48ZM627.454 235.8C623.334 235.8 621.014 232.28 621.014 228.32C621.014 224.4 623.334 220.88 627.454 220.88C631.574 220.88 633.854 224.4 633.854 228.32C633.854 232.28 631.574 235.8 627.454 235.8ZM652.337 238H661.457C669.737 238 675.137 232.28 675.137 224.68C675.137 217.12 669.737 211.32 661.457 211.32H652.337V238ZM655.657 235.04V214.28H661.457C668.057 214.28 671.697 218.92 671.697 224.68C671.697 230.4 667.937 235.04 661.457 235.04H655.657ZM679.105 228.32C679.105 234.36 683.225 238.48 688.945 238.48C692.105 238.48 694.705 237.44 696.625 235.52L695.185 233.56C693.665 235.12 691.425 236 689.225 236C685.065 236 682.505 232.96 682.265 229.32H697.905V228.56C697.905 222.76 694.465 218.2 688.625 218.2C683.105 218.2 679.105 222.72 679.105 228.32ZM688.585 220.68C692.985 220.68 694.905 224.24 694.945 227.12H682.265C682.425 224.16 684.465 220.68 688.585 220.68ZM701.084 235.44C703.044 237.52 705.724 238.48 708.884 238.48C713.884 238.48 716.484 235.88 716.484 232.64C716.484 228.36 712.604 227.4 709.244 226.64C706.724 226.04 704.524 225.44 704.524 223.56C704.524 221.84 706.164 220.64 708.804 220.64C711.284 220.64 713.404 221.68 714.564 223.08L715.964 221C714.404 219.44 712.084 218.2 708.804 218.2C704.204 218.2 701.604 220.76 701.604 223.76C701.604 227.76 705.324 228.64 708.604 229.4C711.204 230.04 713.564 230.72 713.564 232.84C713.564 234.72 711.964 236.04 709.004 236.04C706.364 236.04 703.924 234.76 702.644 233.28L701.084 235.44ZM722.837 215.44C723.957 215.44 724.877 214.52 724.877 213.4C724.877 212.28 723.957 211.4 722.837 211.4C721.757 211.4 720.837 212.28 720.837 213.4C720.837 214.52 721.757 215.44 722.837 215.44ZM721.357 238H724.357V218.68H721.357V238ZM730.302 242.96C732.582 245.2 734.822 245.84 738.102 245.84C742.822 245.84 747.302 243.84 747.302 237.44V218.68H744.302V221.6C742.742 219.48 740.422 218.2 737.822 218.2C732.742 218.2 729.222 222.04 729.222 228.24C729.222 234.48 732.782 238.24 737.822 238.24C740.542 238.24 742.902 236.76 744.302 234.8V237.56C744.302 241.8 741.302 243.36 738.102 243.36C735.342 243.36 733.422 242.64 731.822 240.72L730.302 242.96ZM744.302 232.44C743.262 234.12 740.942 235.6 738.542 235.6C734.662 235.6 732.342 232.48 732.342 228.24C732.342 223.96 734.662 220.88 738.542 220.88C740.942 220.88 743.262 222.32 744.302 224V232.44ZM766.351 238H769.351V224.44C769.351 220.24 767.231 218.2 763.191 218.2C760.311 218.2 757.671 219.88 756.311 221.48V218.68H753.311V238H756.311V223.88C757.431 222.32 759.671 220.88 762.031 220.88C764.631 220.88 766.351 221.96 766.351 225.36V238ZM784.174 234.24C786.374 236.72 789.774 238.48 794.414 238.48C801.614 238.48 804.254 234.52 804.254 230.64C804.254 225.04 799.294 223.68 794.934 222.52C791.534 221.6 788.454 220.8 788.454 218.12C788.454 215.6 790.734 213.88 793.934 213.88C796.854 213.88 799.654 214.88 801.654 217.08L803.654 214.64C801.414 212.28 798.254 210.92 794.174 210.92C788.934 210.92 785.014 213.92 785.014 218.32C785.014 223.56 789.774 224.76 794.054 225.88C797.574 226.84 800.814 227.72 800.814 230.92C800.814 232.96 799.294 235.52 794.534 235.52C790.774 235.52 787.894 233.68 786.134 231.72L784.174 234.24ZM808.257 242.84L807.777 245.56C808.337 245.72 809.337 245.84 809.977 245.84C812.537 245.8 814.497 244.72 815.657 241.92L825.337 218.68H822.057L815.657 234.52L809.217 218.68H805.977L814.057 238.2L812.777 241.12C812.097 242.72 811.217 243.16 809.897 243.16C809.417 243.16 808.697 243.04 808.257 242.84ZM826.787 235.44C828.747 237.52 831.427 238.48 834.587 238.48C839.587 238.48 842.187 235.88 842.187 232.64C842.187 228.36 838.307 227.4 834.947 226.64C832.427 226.04 830.227 225.44 830.227 223.56C830.227 221.84 831.867 220.64 834.507 220.64C836.987 220.64 839.107 221.68 840.267 223.08L841.667 221C840.107 219.44 837.787 218.2 834.507 218.2C829.907 218.2 827.307 220.76 827.307 223.76C827.307 227.76 831.027 228.64 834.307 229.4C836.907 230.04 839.267 230.72 839.267 232.84C839.267 234.72 837.667 236.04 834.707 236.04C832.067 236.04 829.627 234.76 828.347 233.28L826.787 235.44ZM851.941 238.48C853.701 238.48 854.781 237.96 855.541 237.24L854.661 235C854.261 235.44 853.461 235.8 852.621 235.8C851.301 235.8 850.661 234.76 850.661 233.32V221.32H854.581V218.68H850.661V213.4H847.661V218.68H844.461V221.32H847.661V233.96C847.661 236.84 849.101 238.48 851.941 238.48ZM857.698 228.32C857.698 234.36 861.818 238.48 867.538 238.48C870.698 238.48 873.298 237.44 875.218 235.52L873.778 233.56C872.258 235.12 870.018 236 867.818 236C863.658 236 861.098 232.96 860.858 229.32H876.498V228.56C876.498 222.76 873.058 218.2 867.218 218.2C861.698 218.2 857.698 222.72 857.698 228.32ZM867.178 220.68C871.578 220.68 873.498 224.24 873.538 227.12H860.858C861.018 224.16 863.058 220.68 867.178 220.68ZM904.677 238H907.677V224.04C907.677 220.16 905.797 218.2 902.277 218.2C899.477 218.2 896.877 220.04 895.797 221.8C895.237 219.8 893.557 218.2 890.597 218.2C887.757 218.2 885.157 220.24 884.357 221.48V218.68H881.357V238H884.357V223.88C885.397 222.32 887.477 220.88 889.437 220.88C891.957 220.88 892.997 222.44 892.997 224.88V238H895.997V223.84C896.997 222.32 899.117 220.88 901.117 220.88C903.597 220.88 904.677 222.44 904.677 224.88V238Z" fill="white"/>
<path d="M968.23 123.968C968.23 114.8 960.838 107.408 951.67 107.408C942.55 107.408 935.11 114.8 935.11 123.968C935.11 133.088 942.55 140.528 951.67 140.528C960.838 140.528 968.23 133.088 968.23 123.968ZM966.358 123.968C966.358 132.032 959.734 138.656 951.67 138.656C943.606 138.656 936.982 132.032 936.982 123.968C936.982 115.904 943.606 109.28 951.67 109.28C959.734 109.28 966.358 115.904 966.358 123.968ZM957.526 129.152C956.278 130.832 954.31 131.984 952.006 131.984C947.83 131.984 944.422 128.528 944.422 123.92C944.422 119.216 947.83 115.952 952.006 115.952C954.262 115.952 956.23 117.056 957.478 118.736L959.158 117.104C957.478 115.136 954.982 113.888 952.006 113.888C946.486 113.888 942.022 118.064 942.022 123.92C942.022 129.776 946.486 134.048 952.006 134.048C954.982 134.048 957.478 132.752 959.206 130.736L957.526 129.152Z" fill="white"/>
<defs>
<linearGradient id="paint0_linear" x1="114.513" y1="297.746" x2="92.5564" y2="29.9849" gradientUnits="userSpaceOnUse">
<stop stop-color="#FFA89C"/>
<stop offset="0.421875" stop-color="#FF5070" stop-opacity="0.765625"/>
<stop offset="0.421975" stop-color="#FF5072" stop-opacity="0.87"/>
<stop offset="0.791667" stop-color="#FF54B3" stop-opacity="0.99"/>
<stop offset="1" stop-color="#C89CFF"/>
</linearGradient>
<linearGradient id="paint1_linear" x1="82.4214" y1="33.1629" x2="85.1909" y2="309.852" gradientUnits="userSpaceOnUse">
<stop stop-color="#DE11FF"/>
<stop offset="1" stop-color="#FBFF2B"/>
</linearGradient>
<linearGradient id="paint2_linear" x1="113.061" y1="7.83338" x2="68.4159" y2="99.8868" gradientUnits="userSpaceOnUse">
<stop stop-color="#FF92DC"/>
<stop offset="1" stop-color="#FE54B3"/>
</linearGradient>
</defs>
</svg>
