<svg width="235" height="36" viewBox="0 0 235 36" fill="none" xmlns="http://www.w3.org/2000/svg">
<rect opacity="0.32" x="131" width="104" height="36" rx="4" fill="#66BFFF"/>
<path d="M152.053 17.7109L150.662 19.1562V23H149.162V11.625H150.662V17.25L155.717 11.625H157.529L153.053 16.6484L157.881 23H156.084L152.053 17.7109ZM163.545 23C163.462 22.8333 163.394 22.5365 163.342 22.1094C162.67 22.8073 161.868 23.1562 160.936 23.1562C160.103 23.1562 159.418 22.9219 158.881 22.4531C158.35 21.9792 158.084 21.3802 158.084 20.6562C158.084 19.776 158.418 19.0938 159.084 18.6094C159.756 18.1198 160.699 17.875 161.913 17.875H163.319V17.2109C163.319 16.7057 163.168 16.3047 162.866 16.0078C162.564 15.7057 162.118 15.5547 161.53 15.5547C161.014 15.5547 160.582 15.6849 160.233 15.9453C159.884 16.2057 159.709 16.5208 159.709 16.8906H158.256C158.256 16.4688 158.405 16.0625 158.702 15.6719C159.004 15.276 159.41 14.9635 159.92 14.7344C160.436 14.5052 161.001 14.3906 161.616 14.3906C162.59 14.3906 163.353 14.6354 163.905 15.125C164.457 15.6094 164.743 16.2786 164.764 17.1328V21.0234C164.764 21.7995 164.863 22.4167 165.061 22.875V23H163.545ZM161.147 21.8984C161.6 21.8984 162.03 21.7812 162.436 21.5469C162.842 21.3125 163.136 21.0078 163.319 20.6328V18.8984H162.186C160.415 18.8984 159.53 19.4167 159.53 20.4531C159.53 20.9062 159.681 21.2604 159.983 21.5156C160.285 21.7708 160.673 21.8984 161.147 21.8984ZM167.749 14.5469L167.788 15.4844C168.408 14.7552 169.244 14.3906 170.296 14.3906C171.478 14.3906 172.283 14.8438 172.71 15.75C172.991 15.3438 173.356 15.0156 173.804 14.7656C174.257 14.5156 174.791 14.3906 175.405 14.3906C177.259 14.3906 178.202 15.3724 178.233 17.3359V23H176.788V17.4219C176.788 16.8177 176.65 16.3672 176.374 16.0703C176.098 15.7682 175.634 15.6172 174.983 15.6172C174.447 15.6172 174.002 15.7786 173.648 16.1016C173.293 16.4193 173.088 16.849 173.03 17.3906V23H171.577V17.4609C171.577 16.2318 170.976 15.6172 169.773 15.6172C168.825 15.6172 168.176 16.0208 167.827 16.8281V23H166.382V14.5469H167.749ZM185 23C184.916 22.8333 184.849 22.5365 184.797 22.1094C184.125 22.8073 183.323 23.1562 182.39 23.1562C181.557 23.1562 180.872 22.9219 180.336 22.4531C179.804 21.9792 179.539 21.3802 179.539 20.6562C179.539 19.776 179.872 19.0938 180.539 18.6094C181.211 18.1198 182.153 17.875 183.367 17.875H184.773V17.2109C184.773 16.7057 184.622 16.3047 184.32 16.0078C184.018 15.7057 183.573 15.5547 182.984 15.5547C182.468 15.5547 182.036 15.6849 181.687 15.9453C181.338 16.2057 181.164 16.5208 181.164 16.8906H179.711C179.711 16.4688 179.859 16.0625 180.156 15.6719C180.458 15.276 180.864 14.9635 181.375 14.7344C181.89 14.5052 182.455 14.3906 183.07 14.3906C184.044 14.3906 184.807 14.6354 185.359 15.125C185.911 15.6094 186.198 16.2786 186.218 17.1328V21.0234C186.218 21.7995 186.317 22.4167 186.515 22.875V23H185ZM182.601 21.8984C183.054 21.8984 183.484 21.7812 183.89 21.5469C184.297 21.3125 184.591 21.0078 184.773 20.6328V18.8984H183.64C181.869 18.8984 180.984 19.4167 180.984 20.4531C180.984 20.9062 181.135 21.2604 181.437 21.5156C181.739 21.7708 182.127 21.8984 182.601 21.8984ZM189.414 23H187.969V11H189.414V23ZM194.603 23.1562C193.457 23.1562 192.524 22.7812 191.806 22.0312C191.087 21.276 190.728 20.2682 190.728 19.0078V18.7422C190.728 17.9036 190.886 17.1562 191.204 16.5C191.527 15.8385 191.975 15.3229 192.548 14.9531C193.126 14.5781 193.751 14.3906 194.423 14.3906C195.522 14.3906 196.376 14.7526 196.985 15.4766C197.595 16.2005 197.899 17.237 197.899 18.5859V19.1875H192.173C192.194 20.0208 192.436 20.6953 192.899 21.2109C193.368 21.7214 193.962 21.9766 194.681 21.9766C195.191 21.9766 195.623 21.8724 195.978 21.6641C196.332 21.4557 196.642 21.1797 196.907 20.8359L197.79 21.5234C197.082 22.612 196.019 23.1562 194.603 23.1562ZM194.423 15.5781C193.839 15.5781 193.35 15.7917 192.954 16.2188C192.558 16.6406 192.313 17.2344 192.22 18H196.454V17.8906C196.412 17.1562 196.214 16.5885 195.86 16.1875C195.506 15.7812 195.027 15.5781 194.423 15.5781ZM198.556 18.6953C198.556 17.8672 198.718 17.1224 199.041 16.4609C199.369 15.7995 199.822 15.2891 200.4 14.9297C200.983 14.5703 201.647 14.3906 202.392 14.3906C203.543 14.3906 204.473 14.7891 205.181 15.5859C205.895 16.3828 206.252 17.4427 206.252 18.7656V18.8672C206.252 19.6901 206.093 20.4297 205.775 21.0859C205.463 21.737 205.012 22.2448 204.423 22.6094C203.84 22.974 203.168 23.1562 202.408 23.1562C201.262 23.1562 200.332 22.7578 199.619 21.9609C198.91 21.1641 198.556 20.1094 198.556 18.7969V18.6953ZM200.009 18.8672C200.009 19.8047 200.226 20.5573 200.658 21.125C201.095 21.6927 201.679 21.9766 202.408 21.9766C203.142 21.9766 203.726 21.6901 204.158 21.1172C204.59 20.5391 204.806 19.7318 204.806 18.6953C204.806 17.7682 204.585 17.0182 204.142 16.4453C203.705 15.8672 203.121 15.5781 202.392 15.5781C201.679 15.5781 201.103 15.862 200.666 16.4297C200.228 16.9974 200.009 17.8099 200.009 18.8672ZM208.791 14.5469L208.838 15.6094C209.484 14.7969 210.328 14.3906 211.369 14.3906C213.156 14.3906 214.057 15.3984 214.073 17.4141V23H212.627V17.4062C212.622 16.7969 212.481 16.3464 212.205 16.0547C211.934 15.763 211.51 15.6172 210.932 15.6172C210.463 15.6172 210.052 15.7422 209.698 15.9922C209.343 16.2422 209.067 16.5703 208.869 16.9766V23H207.424V14.5469H208.791Z" fill="white"/>
<path d="M125 19.732C123.667 18.9622 123.667 17.0377 125 16.2679L131 12.8038C132.333 12.034 134 12.9963 134 14.5359L134 21.4641C134 23.0037 132.333 23.966 131 23.1962L125 19.732Z" fill="#49A0FF"/>
<path d="M95.2891 22.5716C95.6935 19.1247 97.7708 15.7759 100.042 15.7759C100.042 15.7759 102.548 15.7759 101.758 20.7596C101.618 21.6817 101.384 22.5868 101.058 23.4602C100.738 23.4371 100.417 23.4818 100.116 23.5914C99.8147 23.701 99.5397 23.873 99.3089 24.0963C99.0425 24.3751 98.8867 24.742 98.8708 25.1281C98.818 25.6086 98.9298 26.0929 99.1879 26.5009C98.6075 27.1778 97.7887 27.6026 96.9032 27.6863C95.2744 27.6863 94.8804 26.0176 95.2848 22.5664L95.2891 22.5716ZM11.1468 5.22619C10.1084 5.7303 9.00217 6.07909 7.86321 6.26146C7.73006 6.29256 7.60702 6.35726 7.50571 6.44943C7.40441 6.5416 7.32819 6.6582 7.28426 6.78821C7.14168 7.20561 6.54113 9.26922 6.36571 9.80725C6.31222 9.96899 6.20692 10.1084 6.06623 10.2037C5.92553 10.299 5.75738 10.3448 5.58802 10.334C4.81033 10.2793 1.84904 9.90618 1.45587 9.8732C1.30486 9.86251 1.15403 9.8963 1.02187 9.97045C0.889712 10.0446 0.781974 10.1559 0.711872 10.2906C0.219842 11.4715 -0.0220516 12.7423 0.00157857 14.0221C0.0265381 14.1773 0.0988968 14.3209 0.208652 14.433C0.318408 14.545 0.460136 14.6201 0.614229 14.6478C0.920122 14.7025 3.57724 15.0869 3.88314 15.1303C3.98711 15.1479 4.08632 15.1869 4.1745 15.245C4.26269 15.303 4.33794 15.3788 4.3955 15.4675C4.45307 15.5562 4.4917 15.656 4.50896 15.7604C4.52622 15.8649 4.52174 15.9718 4.4958 16.0744C2.19987 25.0769 2.52909 30.9579 10.3233 30.9579C16.7955 30.9579 21.6924 22.8336 23.9658 15.0938C24.542 15.5852 25.086 16.1134 25.5947 16.6749C25.769 16.9036 25.8671 17.1817 25.875 17.4696C25.8829 17.7575 25.8002 18.0406 25.6387 18.2786C23.9969 20.6937 18.2938 29.9938 26.5789 30.9588C29.5963 31.2989 32.1653 29.4983 34.2746 26.8854C34.4474 28.6088 35.4221 30.8269 39.3037 30.8269C42.6383 30.8269 44.8901 28.2686 46.2891 25.8536C46.2338 26.0731 45.152 30.8269 49.164 30.8269C51.1756 30.8269 53.3178 29.2648 55.0563 27.511C54.925 28.082 54.7971 28.653 54.6623 29.2466C54.5998 29.5083 54.6383 29.784 54.7701 30.0183C54.9018 30.2526 55.1172 30.428 55.3726 30.5092C56.7189 31.0156 58.2085 30.9761 59.5263 30.399C59.6723 30.329 59.8003 30.2263 59.9007 30.0989C60.001 29.9715 60.071 29.8228 60.1053 29.664C60.3136 28.7303 60.8381 26.4471 61.6797 23.2736H61.7125C62.4669 27.5883 65.0359 30.8156 69.2994 30.8156C72.4041 30.8156 74.9161 28.9932 76.9415 26.2371C77.4436 29.0592 78.9851 30.9588 82.2212 30.9588C85.3372 30.9588 87.8621 29.1138 89.8953 26.3482C90.5512 29.4436 92.3442 30.9588 95.9078 30.9588C98.4998 30.8985 101.002 29.9926 103.036 28.378C103.036 28.3675 103.025 28.3675 103.025 28.3563C102.611 27.5515 102.398 26.6584 102.402 25.7529C102.404 24.3656 102.911 23.027 103.827 21.9884C104.743 20.9498 106.004 20.2827 107.375 20.1123H107.408C107.429 19.849 107.44 19.5965 107.441 19.3547C107.441 12.5035 100.849 12.5035 100.849 12.5035C94.5848 12.5035 89.8841 17.4004 89.6111 22.5698C88.0557 25.227 86.1676 27.3349 84.0246 27.6534C80.5051 28.1801 81.4323 22.142 83.3143 15.8618C83.3539 15.7316 83.434 15.6176 83.5429 15.5366C83.6517 15.4555 83.7836 15.4116 83.9192 15.4114C85.551 15.4134 87.1807 15.2924 88.7945 15.0496C88.9004 15.0313 89 14.9865 89.0842 14.9193C89.1683 14.8521 89.2342 14.7647 89.2758 14.6651C89.5547 13.9679 89.6888 13.2208 89.6698 12.4696C89.6685 12.3841 89.6501 12.2996 89.6155 12.2214C89.581 12.1431 89.5311 12.0727 89.4688 12.0143C89.4065 11.9558 89.3331 11.9106 89.2531 11.8814C89.173 11.8521 89.0878 11.8394 89.0027 11.844C87.8656 11.9212 86.6636 11.9429 85.472 11.9307C85.3709 11.9311 85.2713 11.9069 85.1816 11.8602C85.0919 11.8135 85.0147 11.7457 84.9567 11.6626C84.8988 11.5794 84.8617 11.4835 84.8486 11.3828C84.8356 11.2822 84.847 11.1799 84.8818 11.0846C85.2791 9.82248 85.7465 8.58365 86.2817 7.37397C86.3282 7.26767 86.3527 7.15293 86.3535 7.03681C86.3543 6.92068 86.3315 6.80561 86.2864 6.69866C86.2413 6.59172 86.1749 6.49515 86.0914 6.4149C86.0078 6.33464 85.9088 6.27238 85.8003 6.23195C84.4908 5.7091 83.0556 5.59065 81.6786 5.89178C81.5459 5.91995 81.4219 5.97943 81.3167 6.06529C81.2115 6.15116 81.1282 6.26094 81.0737 6.38556C80.3226 7.93893 79.7188 9.55989 79.2703 11.227C79.2274 11.3623 79.1404 11.4792 79.0233 11.5588C78.9062 11.6385 78.7659 11.6763 78.6248 11.6661C77.9802 11.6227 77.4764 11.5793 77.1489 11.5558C77.0229 11.5413 76.8954 11.5662 76.7839 11.6271C76.6724 11.6879 76.5823 11.7819 76.5259 11.896C76.1901 12.6186 76.0796 13.4262 76.2088 14.213C76.2281 14.3412 76.287 14.46 76.3773 14.5527C76.4675 14.6453 76.5845 14.7071 76.7117 14.7294C76.9709 14.784 77.225 14.8283 77.4764 14.8725C77.5629 14.8859 77.6456 14.9175 77.7191 14.9653C77.7925 15.013 77.8551 15.0758 77.9027 15.1496C77.9503 15.2234 77.9818 15.3064 77.9951 15.3933C78.0085 15.4801 78.0034 15.5688 77.9802 15.6536C77.3827 18.0921 76.9734 20.5732 76.7558 23.0749C75.1598 25.8414 73.2993 27.1804 71.1149 27.5102C68.6772 27.8729 66.7425 25.2045 66.4366 21.4608V21.4504C68.2695 20.5459 69.9059 19.2859 71.2514 17.743C72.5968 16.2001 73.6247 14.4049 74.2758 12.461C74.3419 12.258 74.3304 12.0375 74.2435 11.8426C74.1566 11.6476 74.0005 11.4922 73.8057 11.4066C72.4413 10.8737 70.931 10.8542 69.5534 11.3519C69.4102 11.3987 69.2815 11.4819 69.1799 11.5936C69.0782 11.7052 69.0072 11.8414 68.9736 11.9889C67.782 17.2919 64.1424 18.6526 63.4209 18.8618C63.3664 18.8835 63.1038 18.9486 62.8851 19.0041C63.77 15.4462 66.6008 7.87208 66.7874 7.3757C66.8353 7.24402 66.8519 7.10294 66.8359 6.96368C66.82 6.82441 66.7718 6.69082 66.6954 6.57352C66.619 6.45623 66.5163 6.35847 66.3956 6.28802C66.2749 6.21758 66.1396 6.17639 66.0002 6.16774C65.1004 6.26463 64.2451 6.61073 63.5298 7.16743C62.8387 7.55767 62.0889 7.83202 61.3099 7.97968C61.2004 8.00192 61.099 8.0534 61.0163 8.1287C60.9335 8.20399 60.8726 8.30031 60.8398 8.4075C60.8057 8.50452 60.7769 8.6033 60.7534 8.70342C60.7318 8.75896 60.7206 8.80235 60.6989 8.84661C58.8945 13.6541 57.3439 18.5538 56.0535 23.5253C54.5119 25.8084 52.8615 27.2793 51.6371 27.2793C49.5822 27.2793 51.5507 21.2525 52.2169 19.3746C52.2756 19.2059 52.2763 19.0223 52.2188 18.8532C52.1613 18.684 52.049 18.5392 51.8998 18.4418C50.7412 17.7341 49.3675 17.4691 48.0303 17.6955C47.8757 17.7209 47.7303 17.7858 47.6077 17.8838C47.4852 17.9817 47.3897 18.1096 47.3304 18.2552C42.1924 30.5622 39.6459 28.2348 39.8991 24.5458C40.1401 20.8022 43.8126 15.8505 47.4315 15.8505C49.4517 15.8714 51.4323 16.416 53.1812 17.4317C53.3359 17.5196 53.5131 17.5592 53.6902 17.5454C53.8674 17.5317 54.0365 17.4652 54.1758 17.3544C54.5523 17.0605 54.8806 16.7091 55.1488 16.3131C55.2599 16.1396 55.3153 15.9361 55.3076 15.73C55.2999 15.5239 55.2294 15.3252 55.1056 15.1606C54.3953 14.2165 52.4925 12.3837 48.2619 12.3837C43.0038 12.3837 35.6252 16.8745 34.4768 23.6919C28.4756 31.9802 25.7096 26.9635 29.5687 21.2768C31.6132 18.2578 32.345 17.0247 28.8584 14.2616C25.3717 11.4986 26.311 11.3198 26.311 9.68402C26.311 8.04824 23.119 6.48882 21.8833 10.1118C21.6652 10.7127 21.6131 11.3616 21.7323 11.9898C21.8516 12.618 22.1379 13.2021 22.5608 13.6802C20.9544 18.7524 16.5267 26.9973 12.1319 27.6516C8.60116 28.1784 9.9457 21.8331 11.8148 15.5529C11.853 15.422 11.9328 15.3072 12.042 15.2261C12.1512 15.1449 12.2838 15.1018 12.4196 15.1034C14.0554 15.1102 15.6892 14.9889 17.3062 14.7406C17.4099 14.7244 17.5077 14.6815 17.59 14.6161C17.6724 14.5507 17.7365 14.4651 17.7762 14.3675C18.1592 13.3517 18.402 12.288 18.4978 11.2061C18.4965 11.1206 18.478 11.0361 18.4435 10.9579C18.409 10.8796 18.359 10.8092 18.2968 10.7508C18.2345 10.6923 18.1611 10.6471 18.081 10.6179C18.0009 10.5886 17.9158 10.5759 17.8307 10.5805C16.6935 10.6464 15.4915 10.6672 14.2991 10.6672C14.1981 10.6674 14.0986 10.643 14.009 10.5963C13.9193 10.5495 13.8423 10.4817 13.7844 10.3987C13.7264 10.3156 13.6893 10.2197 13.6762 10.1192C13.663 10.0186 13.6743 9.9164 13.7089 9.82114C14.1686 8.50383 14.9117 6.08964 15.1303 5.48219C15.1888 5.32092 15.209 5.14822 15.1895 4.97774C15.17 4.80726 15.1113 4.64367 15.018 4.4999C14.9247 4.35613 14.7994 4.23612 14.652 4.14936C14.5046 4.0626 14.3391 4.01147 14.1686 4H14.0779C13.0154 4.15186 12.0087 4.57196 11.152 5.22098" fill="white"/>
<path d="M104.145 25.7625C104.145 26.5425 104.375 27.3051 104.806 27.9537C105.238 28.6023 105.851 29.1078 106.569 29.4063C107.287 29.7049 108.076 29.783 108.838 29.6308C109.6 29.4786 110.3 29.103 110.849 28.5514C111.398 27.9998 111.772 27.297 111.924 26.5319C112.075 25.7668 111.998 24.9738 111.7 24.2531C111.403 23.5324 110.9 22.9164 110.254 22.4831C109.608 22.0497 108.849 21.8184 108.072 21.8184C107.556 21.8184 107.046 21.9204 106.569 22.1186C106.093 22.3168 105.659 22.6073 105.295 22.9736C104.93 23.3398 104.641 23.7746 104.443 24.2531C104.246 24.7316 104.145 25.2445 104.145 25.7625" fill="#FE6E46"/>
</svg>
